<svg xmlns="http://www.w3.org/2000/svg" xmlns:xlink="http://www.w3.org/1999/xlink" width="506.7" height="506.7" viewBox="0 0 380 380" preserveAspectRatio="xMidYMid meet" xmlns:v="https://vecta.io/nano"><path d="M239.4 12a40 40 0 0 1-16 8.9c-3.5 1-5.2 1-12.8-1a59 59 0 0 0-18.5-1.8c-9.2.3-10 .5-15.8 4l-6 3.7-8-4a52 52 0 0 0-28.9-5.7 24 24 0 0 0-15 3.9 24 24 0 0 0-6.9 5.4c-1 2-17 12-23.7 14.8-3.5 1.4-4 1.4-8-1-2.4-1.4-4.5-2.2-4.8-2-1 1 4.5 5.8 9.3 8l5 2.3-2.8 1A73 73 0 0 0 68 61c-7 6.7-8 9-8.6 19.5-.4 8-1 9.7-3 12.7-1.4 2-5 4.6-7.7 6l-5 2.5-2.2-2c-3-2.7-3.8-2.6-3.4.1.4 3.3 6.5 7 10.6 6.6 1.7-.2 3.2-.2 3.2 0s-1 2.3-2 4.8c-3.2 6.8-4 12.8-3.3 26 .6 10.7 1 12 3 14.3 1.2 1.2 2.3 2.8 2.3 3.4s1.5 4.7 3.4 9.2l5 13.4L62 183l-4.8 4.8c-6.5 6.5-9 13.5-9 24.7 0 9 2 16.5 6.5 23.5 5 8 14.6 13.8 23.2 14l5 .2 4 7.6a67 67 0 0 0 14.3 18.2l12.3 11.6c1.7 1 1.7 1.3.3 7.7a61 61 0 0 1-3.2 9.9c-2.3 4.6-7.5 9.7-9.8 9.7-1 0-4 1-6.3 2.5-3.3 2-4.7 2.4-6.2 1.5-1-.5-3-1-4.3-1a89 89 0 0 0-20.3 6.6 240 240 0 0 1-21.3 7c-22 6.3-27.8 8.7-36.2 14.6l-6 4.2V365v15h71l70.7-1.3a156 156 0 0 1-2.7-8.2c-3.5-10.8-4.2-12.5-5.7-12.5-.8 0-8.7-4-17.7-9.2L95 337c-5.7-3.2-10-7.2-8.3-7.8.6-.2 3-1.7 5.2-3.4 4.2-3 6.5-3.6 7.6-2 .3.5 7 4.3 14.8 8.4a83 83 0 0 0 21.9 9.1c9.8 2 31.8 2 41 .1 7-1.5 17.7-6 17.7-7.6 0-1.3 2.8-1 3.6.3 1 1.7-7.2 8.8-15.3 13-3.7 2-12 5.7-18.3 8.4-6.3 2.6-12 5-12.3 5.4a29 29 0 0 0-1.7 7l-1.6 9.2-.6 2.7h65.6l65.6-1c0-1.6-10.5-14.6-16.5-20.5-7.2-7-18.4-12.7-42-21a163 163 0 0 1-22.6-9.6 28 28 0 0 0-9.1-4c-2 0-3-.8-3.8-3-1.4-3.5-.7-5 2.3-5a275 275 0 0 0 39.3-13.4c14.2-6 23.3-12.8 29-21.7a36 36 0 0 0 4.4-8c0-.6 2.5-3.4 5.7-6.3C278 255.8 286 240 286 228c0-7.5-1.4-12-5-16-2.4-2.6-2.4-2.8-.5-2.2 1.3.4 3-.1 4.6-1.3 1.3-1 3.7-2.3 5.2-2.7 3.2-.8 7.8-7 9.7-13.2.6-2.3 1.6-4.2 2-4.2.8 0 2 2.7 1.8 4.4 0 1 2.5 2.6 8 5.2 3.3 1.5 10 1.3 10-.4 0-.4-1.6-1.6-3.5-2.6-2-1-4-3-5-4-1.4-2-1.3-2.7.6-6.7 2.7-5.4 3.6-19.3 1.8-29-1-5-1-7.2-.1-8 .6-.6 1-2.8 1-4.8s.5-4 1-4.4c1.7-1 1-12-1-18.7A74 74 0 0 0 303.2 96l-4.3-5h6.4c7.6 0 14.6-2.2 17.7-5.5 3-3.2 2-4-2-2-6.2 3.3-16.5 1.7-24.5-3.8C291.2 76.3 285.2 67 285 62c-.1-3.2-4.5-9.4-10-14.2A80 80 0 0 0 234.2 32h-4.4l4.4-5c5.7-6.3 10.7-15.6 9.2-17-.7-.7-2-.1-4 2zm50 97.3a46 46 0 0 1 4.3 10.6c1.3 5.4 1.4 7 .4 10.4l-1.3 4-2-6.5-5-14c-4.5-11.4-4.5-11.3-1.6-10 1.3.6 3.6 3 5 5.4zM281 115c2 3.5 2.7 9.3 1 10.3-.6.3-1.4-.4-2-1.7-1-3-2.4-11.8-1.6-11.8.3 0 1.4 1.5 2.5 3.2zm-22 .8c0 1-.4 2-1 2-.5 0-1-1-1-2s.5-2 1-2c.6 0 1 1 1 2zm11 .4c1 2.6.3 6.6-1 6.6-1 0-2.3-6.6-1.4-8 1-1.6 1.5-1.4 2.5 1.3zm-219.4 30c-.3.8-.6.5-.6-.6-.1-1 .2-1.7.5-1.3.3.3.4 1.2.1 2zm124.8 13.5a44 44 0 0 0 10.8 35c4.4 3.8 12.3 8 13.2 7.2.3-.2-.2-2.4-1-4.8a56 56 0 0 1-.3-24.2l1.2-5.3.7 7.4c.8 7.8 3 15.2 5.5 17 2 1.6 1.8 3-.2 3-1 0-1.4.6-1 1.2.2.7 1.8 1.3 3.5 1.3 2.4 0 3.2.4 3.2 1.7 0 1.6 1 1.8 9.3 1.8h9.2v5.3c0 8.8 6.2 14.7 14 13.4 5.5-1 10.4-7 10.4-13.3 0-1.8.5-2.5 1.8-2.3 3.4.3 5.2-.1 5.2-1.4.1-1.8 5-5.2 5-3.4a27 27 0 0 1-4.1 10.7c-1.4 2-1.5 2.8-.4 4.3.7 1 2 1.7 3 1.7 1.4 0 1.6.5 1 2.7-2 8-5.5 28-6.5 37.3-.8 7.7-2 12-4 16.5-7 15-17 21.2-55.6 34.5-15 5.2-19.2 6.2-25.5 6.3-7 .2-8 0-17-4.6-27.7-13.7-53.3-34-64-50.7-7.5-11.8-8.5-12.7-14.6-13.3-9.7-1-17.2-7-22-17.7a38 38 0 0 1-.3-27.8c3-6.5 8-11.2 12.3-11.2s10.4 6.2 11.3 11.5a38 38 0 0 0 2.1 7.2c.8 1.7 1.4 3.5 1.4 4a53 53 0 0 0 1.5 6.1c1.7 5.5 3.5 7 3.5 2.8 0-1.4.4-2.7 1-3 .5-.4 1.2-3 1.6-6 1.8-14.7 4.7-22.3 9.5-24.7 2-1 4-2.5 4.7-3.2 1-1 4.3-1.3 13.5-1.2 23.3.3 40 4.7 50.6 13 6 4.8 8.6 4.8 4.6 0-2.5-3-2.5-3-.8-4.4 1.8-1.3 1.8-1.4-.3-2-1.6-.5-2.2-1.5-2.5-4.7a73 73 0 0 1 2.2-20.9l2-5.8c1.7-4.5 2.2-3.6 1.4 2.7zm74 14.4c1.7 9.7 1.5 12-1 12-1.2 0-1.5-1.6-1.5-8.8l-.5-12.7c-1-7.5 1.3-.1 3 9.6zm-37 11l-.7 3.5-.7-3.8a88 88 0 0 1 1.2-20.7c.1-.8.4 2.8.6 8l-.4 13zm-54-4.5c.8 2 1.4 4 1 4.2-.2.3-12-4-14.4-5.3-.1 0 1.8-3 4.3-6.8l4.6-8c.1-.7.7 1.8 1.5 5.4a51 51 0 0 0 3 10.4zm-18-11.8l-2 5c-.6 1.6-4.3 1.7-4.3.2 0-.8 7-8.8 7.8-9 .1 0-.5 1.7-1.4 3.7zM131 178c-.8.5-2.3 1-3.4.8-1.8 0-1.7-.1.5-1.3 2.6-1.5 5.2-1 3 .5zm110 9c-.7.5-2.3 1-3.5 1-2.2 0-2.2-.1.7-4.7 1.7-2.6 3-5.4 3.2-6.2.1-1 .3.8.5 3.8.3 3.7 0 5.7-1 6.2zm20 4.6c-1 7.3-1.8 8.5-4.3 7.7l-2.5-1c-.7-.6 1-2.4 2.4-2.4.8 0 1.2-.6 1-1.3-.6-1.7 2.4-9 3.5-8.3.4.3.5 2.7 0 5.3zm-10-1.2c0 .8-1 1.5-2 1.5-2 0-2.6-1-1.3-2.3 1.2-1.3 3.3-.7 3.3.8zm-11 4.6c0 1.2-13.7 1.2-14.5 0-.3-.5.5-1 1.7-1.3 4-.5 12.8.3 12.8 1.3zm10 1.4c0 1.6-1 2-3.4 1-2-.8-1-2.4 1.5-2.4 1 0 2 .7 2 1.5zm-12 5.4c.2.1-.4 1-1.4 2-1.8 2-1.7 2 .1 2 1 0 2.7 1 3.7 2 2.2 2.6 3.4 2.5 4.3-.2.4-1.5.1-2.5-1-3.4-1-.7-1.3-1.5-.8-1.8 1.2-.7 5.2.4 5.2 1.5 0 .5.7 1 1.5 1 1.2 0 1.4.7 1 2.7-1 4.3-3.3 7-6.6 8.2s-5.2.5-8-2.7c-4-4.3-4-12.4 0-11.7l2.2.4zm42 18.7c2 5.6.5 14.7-3.4 23-3.4 7.2-10.4 17.5-12 17.5-1 0-.1-9.2 2.4-22.5 3.7-20.3 4-21.6 6.3-22.5 3-1 5.3.4 6.6 4.6zm-159 73a118 118 0 0 0 17 17.5c9.6 7.6 27 14.4 39.6 15.3 4.4.3 6.4 1 8.2 3l2.5 2.4-3 1.5c-5 2.6-14.4 4-27.8 4a67 67 0 0 1-39.3-9.3l-14.2-7 4.3-4c4.7-4.3 9.5-13.7 10.3-20 .3-2.2 1-4 1.4-4 .5 0 1 .3 1 .7zm-14.7-109.8c-1.7.6-1.6 3 0 3.6.8.3 6 .8 11.5 1.2l10.2.8v4.3c0 5.6 1.3 8.3 5.7 11.6 4 3 8.8 3.6 13 1.4 3-1.6 4.7-4.4 5.7-9.3.5-2.7 1-3.2 3.8-3.5 5-.5 4-3-2.3-5-12.4-3.8-43-7-47.7-5.2zm33.2 7.7c9 1.4 9.5 1.7 9.5 4 0 10.5-12 12-17.2 2.2-1.4-2.7 0-8 2-7.3l5.7 1zm-.1 3c-.4 1-.2 2 .4 2.7 1.5 1.5 4.4.1 4-2-.4-2.3-3.6-3-4.4-.8zm-76.7 3.2c-1.3 1.2-.7 2 2.3 3.2 3 1 5.8 5.7 7.4 12.4.6 2.5.5 2.8-1.4 2.2-3.6-1-6 .4-7 4.6-.8 3-.8 4.6.2 6.7 1.8 3.7 2.8 3 2.8-2-.1-5.5 1-7.3 3.7-5.8 1.5.7 2 1.7 1.6 3.6-.4 1.8-.1 2.5 1 2.5 5 0 2.8-18-3-25-2.4-2.8-6-4-7.7-2.3zm45.3 6.7c0 2.2 7 6.4 13.7 8 11 3 34.3 1.3 34.3-2.3 0-1-.8-1.3-3.2-1a63 63 0 0 1-44-6c-.5-.2-.8.3-.8 1.2zM210 218c0 1 3.7 2.6 12 4.8 8.3 2.3 26 2.5 28.4.4 2.6-2.2.6-3-5-2a72 72 0 0 1-25.5-2.5c-6.2-1.7-10-2-10-.6zm-20 11c0 .5.5 3.2 1 6 .7 3.4 1.6 5 2.6 5 1.3 0 1.4-.8 1-4-.4-2.3-1-5-1.7-6-1-2-3-2.6-3-1zm-55.6 2.5l2.2 8.8 2 6.3a61 61 0 0 0-3.9-15.6c-.7-1.2-.8-1-.4.5zM121 234c1.5 4.5 2.4 5.4 1.5 1.5-.4-1.7-1.2-3.4-1.7-4-.5-.5-.4.6.2 2.5z"/><use xlink:href="#B"/><path d="M141.7 233c.4 1.3.8 1.8 1 1 .2-.7-.1-1.8-.6-2.3-.8-.8-1-.4-.5 1.3z"/><use xlink:href="#B" x="-14" y="4"/><use xlink:href="#B" x="-13" y="8"/><use xlink:href="#B" x="-4" y="8"/><use xlink:href="#B" x="103" y="8"/><path d="M237.7 246.4a64 64 0 0 0 1.4 9.5c1 3.3 0-8.7-1.2-13.2-.5-2-.6-.7-.2 3.7zm-14.5-3a15 15 0 0 0 .8 5l1 2v-2a27 27 0 0 0-.8-5l-.8-3v3zm20.3.1c.2 1.7.7 5.4 1 8.3.4 2.8 1 5.4 1.6 5.7 1 .7.4-3.6-1.8-12-.7-2.8-1.2-3.7-1-2zm7.7.4c0 1.4.2 2 .5 1.2.2-.6.2-1.8 0-2.5-.3-.6-.5-.1-.5 1.3zm-20 1.5c0 1.6.2 2.2.5 1.2.2-1 .2-2.3 0-3-.3-.6-.5.1-.5 1.8z"/><use xlink:href="#B" x="125" y="16"/><use xlink:href="#B" x="126" y="22"/><defs ><path id="B" d="M127 232.6c0 1 .3 1.4.6.6.3-.7.2-1.6-.1-2-.3-.4-.6.2-.5 1.3z"/></defs></svg>