<svg xmlns="http://www.w3.org/2000/svg" xmlns:xlink="http://www.w3.org/1999/xlink" fill="none" viewBox="0 0 3000 3500" preserveAspectRatio="xMidYMin slice" xmlns:v="https://vecta.io/nano"><style><![CDATA[.B{color-interpolation-filters:sRGB}.C{flood-opacity:0}.D{stroke-width:7}.E{stroke-opacity:.38}.F{stroke-width:11}.G{stroke-width:4}.H{stroke-width:.7}.I{stroke-width:6}.J{stroke-width:8}.K{stroke-width:9}.L{stroke-linecap:round}.M{stroke-linejoin:round}.N{stroke-opacity:.9}]]></style><g filter="url(#BC)" class="D"><path d="M-65.17 976l403-100" stroke="url(#A)"/></g><path d="M-65.17 976l403-100" stroke="url(#B)"/><g class="H L M"><path d="M1457.35-724l.96 2061.36V9297" stroke="url(#C)"/><path d="M796.488-724L1340.09 359.896v472.397L1193.83 1132v8157" stroke="url(#D)"/><path d="M2117.93-724L1576.29 359.896v472.397L1724.83 1131" stroke="url(#E)"/><path d="M138.635-62.968l847.174 422.862v472.401L389.831 1130.54V9289" stroke="url(#F)"/><path d="M-51.17 871l210.323-38.707V359.895L-39.17 325" stroke="url(#G)"/><path d="M-31.17 843l77.323-10.707V359.895L-152.17 329" stroke="url(#H)"/><path d="M-32.17 897l309.414-64.705V359.898L-31.17 293" stroke="url(#I)"/><path d="M-30.17 928l425.505-95.706V359.896L-59.17 255" stroke="url(#J)"/><path d="M-51.17 973l564.605-140.707V359.896L-17.17 223" stroke="url(#K)"/><path d="M-18.17 1019l649.696-186.708V359.895L-35.17 165" stroke="url(#L)"/><path d="M-23.17 1090L750.06 831.827V359.429L-33.17 99" stroke="url(#M)"/><path d="M138.389 68.637l729.332 291.257v472.401L122.83 1131v8166" stroke="url(#N)"/><path d="M138.389-282.596l965.511 642.49v472.401L651.83 1132v8157" stroke="url(#O)"/><path d="M138.389-721.388L1222 359.896v472.398L923.83 1134v8147" stroke="url(#P)"/><path d="M3009.83 885l-252.61-52.707V359.895L3016.83 309" stroke="url(#Q)"/><path d="M3128.44 882l-252.61-49.707V359.895L3135.44 313" stroke="url(#R)"/><path d="M3049.83 914l-410.69-81.705V359.897L3018.83 279" stroke="url(#S)"/><path d="M3032.83 947l-511.78-114.706V359.897L3032.83 245" stroke="url(#T)"/><path d="M3028.83 991l-625.89-158.707V359.896L3030.83 197" stroke="url(#U)"/><path d="M3029.83 1046l-744.98-213.704V359.894L3030.83 145" stroke="url(#V)"/></g><g filter="url(#BD)" class="G"><path d="M2483.83 303l589-170" stroke="url(#W)"/></g><g filter="url(#BE)" class="G"><path d="M2212.24 295.014l568.91-228.391" stroke="url(#X)"/></g><path d="M2483.83 303l589-170" stroke="url(#Y)"/><path d="M2212.24 295.014l568.91-228.391" stroke="url(#Z)"/><g class="H L M"><path d="M3030.83 67l-864.06 292.894-.01 472.401L3006.83 1111" stroke="url(#a)"/><path d="M2777.99 68.435l-729.32 291.461-.01 472.398 738.55 298.286V9297" stroke="url(#b)"/><path d="M2778.2-63.56l-847.62 423.455-.01 472.397 596.26 298.648V9265" stroke="url(#c)"/><path d="M2778.2-283.479l-965.72 643.373v472.402L2263.83 1132v8149" stroke="url(#d)"/><path d="M2777.99-723.321L1694.38 359.896v472.397L1993.83 1132v8165" stroke="url(#e)"/><path d="M138.389 832.294H2777.99" stroke="url(#f)"/><path d="M-51.17 714.205h3138" stroke="url(#g)"/><path d="M-31.17 596.115h3102" stroke="url(#h)"/><path d="M-17.17 478.011h3098" stroke="url(#i)"/><path d="M-37.17 359.921h3088" stroke="url(#j)"/><path d="M3032.83 832.294h-3062" stroke="url(#k)"/><path d="M3013.83 842.908h-3031" stroke="url(#l)"/><path d="M3009.83 854.519h-3049" stroke="url(#m)"/><path d="M3009.83 867.283h-3077" stroke="url(#n)"/><path d="M3028.83 881.353h-3072" stroke="url(#o)"/><path d="M3029.83 896.972h-3073" stroke="#b559fd"/><path d="M3010.83 914.396h-3024" stroke="url(#p)"/><path d="M3016.83 933.972h-3044" stroke="url(#q)"/><path d="M3022.83 957h-3060" stroke="url(#r)"/><path d="M3040.83 981.314h-3082" stroke="url(#s)"/><path d="M3028.83 1010.34h-3042" stroke="url(#t)"/><path d="M3022.83 1044.1h-3034" stroke="url(#u)"/><path d="M3074.83 1083.82h-3124" stroke="url(#v)"/><path d="M3034.83 1131.28h-3122" stroke="url(#w)"/><path d="M3038.83 1380.04h-3074" stroke="url(#x)"/><path d="M3146.83 1638.19h-3256" stroke="url(#y)"/><path d="M2777.83 1891.69h-2803" stroke="url(#z)"/><path d="M3072.83 2145.19h-3100" stroke="url(#AA)"/><path d="M3098.83 2398.19h-3142" stroke="url(#AB)"/></g><g filter="url(#BF)"><path d="M1576.47 830.218v-255.87" stroke="url(#AC)" stroke-opacity=".2" stroke-width="23"/></g><g filter="url(#BG)" class="I"><path d="M1576.47 830.218v-255.87" stroke="url(#AD)"/></g><path d="M1576.47 832.218v-257.87" stroke="url(#AE)"/><path d="M1576.83 831.995l147 297.005v8168" stroke="url(#AF)" class="H"/><g filter="url(#BH)" class="J"><path d="M1576.83 831.996l149 299.004v323" stroke="url(#AG)"/></g><path d="M1576.83 831.997l148 300.003v294" stroke="url(#AH)"/><g filter="url(#BI)" class="E"><path d="M1103.83 830.218v-386" stroke="url(#AI)" stroke-width="16"/></g><g filter="url(#BJ)" class="D"><path d="M1103.83 830.218v-386" stroke="url(#AJ)"/></g><path d="M1103.83 832.218v-388" stroke="url(#AK)"/><g filter="url(#BK)" class="E K"><path d="M1103.47 832l-447.64 300-86 3162" stroke="url(#AL)"/></g><g filter="url(#BL)" class="D"><path d="M1103.47 831.999L653.83 1132v644" stroke="url(#AM)"/></g><g filter="url(#BM)" class="E F"><path d="M1930.66 830.218V503.955" stroke="url(#AN)"/></g><g filter="url(#BN)" class="D"><path d="M1930.66 830.218V503.955" stroke="url(#AO)"/></g><path d="M1930.66 832.218V503.955" stroke="url(#AP)"/><g filter="url(#BO)" class="E F"><path d="M2520.83 765V360" stroke="url(#AQ)"/></g><g filter="url(#BP)" class="D"><path d="M2520.83 765V369" stroke="url(#AR)"/></g><path d="M2520.83 764V363" stroke="url(#AS)"/><g filter="url(#BQ)" class="E F"><path d="M1930.83 832l499 250" stroke="url(#AT)"/></g><g filter="url(#BR)" class="K N"><path d="M1930.83 832l499 250" stroke="url(#AU)"/></g><path d="M1930.83 832l499 250" stroke="url(#AV)"/><g filter="url(#BS)" class="E F"><path d="M2166.83 830.218v-461.46" stroke="url(#AW)"/></g><g filter="url(#BT)" class="D"><path d="M2166.83 830.218v-461.46" stroke="url(#AX)"/></g><path d="M2166.83 832.219V368.758" stroke="url(#AY)"/><g filter="url(#BU)" class="E I"><path d="M2166.83 832l430 143" stroke="url(#AZ)"/></g><g filter="url(#BV)" class="N"><path d="M2166.83 832l430 143" stroke="url(#Aa)" stroke-width="5"/></g><path d="M2166.83 832l430 143" stroke="url(#Ab)"/><g filter="url(#BW)" class="E F"><path d="M867.83 830.218v-193" stroke="url(#Ac)"/></g><g filter="url(#BX)" class="D"><path d="M867.83 830.218v-193" stroke="url(#Ad)"/></g><path d="M867.83 832.218v-195" stroke="url(#Ae)"/><g filter="url(#BY)" class="J"><path d="M867.83 832L499.473 980.041" stroke="url(#Af)"/></g><path d="M867.83 832L499.473 980.04" stroke="url(#Ag)"/><g filter="url(#BZ)" class="E F"><path d="M749.83 362.575V835" stroke="url(#Ah)"/></g><g filter="url(#Ba)" class="D"><path d="M749.83 362.575V835" stroke="url(#Ai)"/></g><path d="M749.83 360.782V835" stroke="url(#Aj)"/><g filter="url(#Bb)" class="E F"><path d="M749.83 361l-501-168" stroke="url(#Ak)"/></g><g filter="url(#Bc)" class="D"><path d="M749.83 361l-501-168" stroke="url(#Al)"/></g><path d="M749.829 360l-501-167" stroke="url(#Am)"/><g filter="url(#Bd)" class="G"><path d="M250.83 327l144 33" stroke="url(#An)"/></g><path d="M250.83 327l144 33" stroke="url(#An)"/><g filter="url(#Be)" class="G"><path d="M395.83 549l-.633-189.049" stroke="url(#Ao)"/></g><path d="M395.83 549l-.633-189.049" stroke="url(#Ap)"/><path d="M1769.83 286l216-218" stroke="url(#Aq)"/><g filter="url(#Bf)" class="I"><path d="M1769.83 286l216-218" stroke="url(#Aq)"/></g><g filter="url(#Bg)" class="D"><path d="M3124.83 1638h-1131v889" stroke="url(#Ar)"/></g><g filter="url(#Bh)" class="J"><path d="M-79.17 2651h730v928.25" stroke="url(#As)"/></g><path d="M-79.17 2651h730v928.25" stroke="url(#At)"/><g filter="url(#Bi)"><path d="M-43 2146h695v-254h272v-254" stroke="url(#Au)" stroke-width="5"/></g><path opacity=".8" d="M-105 2146h757v-254h272v-275" stroke="url(#Av)" stroke-width="1.5"/><g opacity=".8" filter="url(#Bj)" class="K"><path d="M1458 2510v394h535v253h1047" stroke="url(#Aw)"/></g><path d="M1458 2522v382h535v253h1053" stroke="url(#Ax)"/><g filter="url(#Bk)" class="D"><path d="M930 2905h264v341" stroke="url(#Ay)"/></g><path d="M930 2905h264v341" stroke="url(#Az)"/><g filter="url(#Bl)"><path d="M930 2905h264v341" stroke="url(#BA)" stroke-width="2"/></g><path d="M930 2905h264v341" stroke="url(#BB)"/><defs><linearGradient id="A" x1="-14.17" y1="962" x2="337.83" y2="876" xlink:href="#Bm"><stop stop-color="#b135c5"/><stop offset=".805" stop-color="#c13ad7"/><stop offset="1" stop-color="#b33fc6" stop-opacity="0"/></linearGradient><linearGradient id="B" x1="-17.17" y1="967" x2="337.83" y2="876" xlink:href="#Bm"><stop stop-color="#f9d4ff"/><stop offset=".805" stop-color="#f9d4ff"/><stop offset="1" stop-color="#f9d4ff" stop-opacity="0"/></linearGradient><linearGradient id="C" x1="1457.83" y1="-970" x2="1457.83" y2="4296" xlink:href="#Bm"><stop stop-color="#59fdfd"/><stop offset=".333" stop-color="#6d54f6"/><stop offset="1" stop-color="#eb0aef"/></linearGradient><linearGradient id="D" x1="1068.29" y1="-724" x2="1068.29" y2="1915.6" xlink:href="#Bm"><stop stop-color="#59fdfd"/><stop offset="1" stop-color="#eb0aef"/></linearGradient><linearGradient id="E" x1="1847.11" y1="-724" x2="1847.11" y2="1915.6" xlink:href="#Bm"><stop stop-color="#59fdfd"/><stop offset="1" stop-color="#eb0aef"/></linearGradient><linearGradient id="F" x1="562.099" y1="-62.968" x2="562.099" y2="1256.38" xlink:href="#Bm"><stop stop-color="#59fdfd"/><stop offset="1" stop-color="#eb0aef"/></linearGradient><linearGradient id="G" x1="148.771" y1="356.131" x2="148.771" y2="836.07" xlink:href="#Bm"><stop stop-color="#59fdfd"/><stop offset="1" stop-color="#eb0aef"/></linearGradient><linearGradient id="H" x1="35.771" y1="356.131" x2="35.771" y2="836.07" xlink:href="#Bm"><stop stop-color="#59fdfd"/><stop offset="1" stop-color="#eb0aef"/></linearGradient><linearGradient id="I" x1="207.816" y1="332.164" x2="207.816" y2="860.102" xlink:href="#Bm"><stop stop-color="#59fdfd"/><stop offset="1" stop-color="#eb0aef"/></linearGradient><linearGradient id="J" x1="266.862" y1="302.876" x2="266.862" y2="889.457" xlink:href="#Bm"><stop stop-color="#59fdfd"/><stop offset="1" stop-color="#eb0aef"/></linearGradient><linearGradient id="K" x1="325.912" y1="266.272" x2="325.912" y2="926.162" xlink:href="#Bm"><stop stop-color="#59fdfd"/><stop offset="1" stop-color="#eb0aef"/></linearGradient><linearGradient id="L" x1="384.957" y1="219.208" x2="384.957" y2="973.339" xlink:href="#Bm"><stop stop-color="#59fdfd"/><stop offset="1" stop-color="#eb0aef"/></linearGradient><linearGradient id="M" x1="444.444" y1="156" x2="444.444" y2="1035.77" xlink:href="#Bm"><stop stop-color="#59fdfd"/><stop offset="1" stop-color="#eb0aef"/></linearGradient><linearGradient id="N" x1="503.055" y1="68.637" x2="503.055" y2="1124.3" xlink:href="#Bm"><stop stop-color="#59fdfd"/><stop offset="1" stop-color="#eb0aef"/></linearGradient><linearGradient id="O" x1="621.144" y1="-282.596" x2="621.144" y2="1476.43" xlink:href="#Bm"><stop stop-color="#59fdfd"/><stop offset="1" stop-color="#eb0aef"/></linearGradient><linearGradient id="P" x1="680.195" y1="-721.388" x2="680.195" y2="1915.6" xlink:href="#Bm"><stop stop-color="#59fdfd"/><stop offset="1" stop-color="#eb0aef"/></linearGradient><linearGradient id="Q" x1="2767.61" y1="356.131" x2="2767.61" y2="836.07" xlink:href="#Bm"><stop stop-color="#59fdfd"/><stop offset="1" stop-color="#eb0aef"/></linearGradient><linearGradient id="R" x1="2886.21" y1="356.131" x2="2886.21" y2="836.07" xlink:href="#Bm"><stop stop-color="#59fdfd"/><stop offset="1" stop-color="#eb0aef"/></linearGradient><linearGradient id="S" x1="2708.56" y1="332.152" x2="2708.56" y2="860.102" xlink:href="#Bm"><stop stop-color="#59fdfd"/><stop offset="1" stop-color="#eb0aef"/></linearGradient><linearGradient id="T" x1="2649.52" y1="302.86" x2="2649.52" y2="889.482" xlink:href="#Bm"><stop stop-color="#59fdfd"/><stop offset="1" stop-color="#eb0aef"/></linearGradient><linearGradient id="U" x1="2590.47" y1="266.231" x2="2590.47" y2="926.199" xlink:href="#Bm"><stop stop-color="#59fdfd"/><stop offset="1" stop-color="#eb0aef"/></linearGradient><linearGradient id="V" x1="2531.42" y1="219.146" x2="2531.42" y2="973.404" xlink:href="#Bm"><stop stop-color="#59fdfd"/><stop offset="1" stop-color="#eb0aef"/></linearGradient><linearGradient id="W" x1="3010.83" y1="152" x2="2530.32" y2="343.817" xlink:href="#Bm"><stop stop-color="#71ffee"/><stop offset=".395" stop-color="#71e5ff"/><stop offset=".79" stop-color="#69ebfe"/><stop offset="1" stop-color="#a6f2fd" stop-opacity="0"/></linearGradient><linearGradient id="X" x1="2721.38" y1="91.763" x2="2262.6" y2="330.947" xlink:href="#Bm"><stop stop-color="#71ffee"/><stop offset=".395" stop-color="#71e5ff"/><stop offset=".79" stop-color="#69ebfe"/><stop offset="1" stop-color="#a6f2fd" stop-opacity="0"/></linearGradient><linearGradient id="Y" x1="3008.83" y1="148" x2="2513.69" y2="353.303" xlink:href="#Bm"><stop stop-color="#c2f4ff"/><stop offset=".79" stop-color="#b8f6ff"/><stop offset="1" stop-color="#a6f2fd" stop-opacity="0"/></linearGradient><linearGradient id="Z" x1="2718.98" y1="87.985" x2="2247.01" y2="342.059" xlink:href="#Bm"><stop stop-color="#c2f4ff"/><stop offset=".79" stop-color="#b8f6ff"/><stop offset="1" stop-color="#a6f2fd" stop-opacity="0"/></linearGradient><linearGradient id="a" x1="2472.38" y1="156.362" x2="2472.38" y2="1036.36" xlink:href="#Bm"><stop stop-color="#59fdfd"/><stop offset="1" stop-color="#eb0aef"/></linearGradient><linearGradient id="b" x1="2413.43" y1="68.435" x2="2413.43" y2="1124.58" xlink:href="#Bm"><stop stop-color="#59fdfd"/><stop offset="1" stop-color="#eb0aef"/></linearGradient><linearGradient id="c" x1="2354.38" y1="-63.56" x2="2354.38" y2="1256.73" xlink:href="#Bm"><stop stop-color="#59fdfd"/><stop offset="1" stop-color="#eb0aef"/></linearGradient><linearGradient id="d" x1="2295.34" y1="-283.479" x2="2295.34" y2="1477.17" xlink:href="#Bm"><stop stop-color="#59fdfd"/><stop offset="1" stop-color="#eb0aef"/></linearGradient><linearGradient id="e" x1="2236.19" y1="-723.321" x2="2236.19" y2="1915.6" xlink:href="#Bm"><stop stop-color="#59fdfd"/><stop offset="1" stop-color="#eb0aef"/></linearGradient><linearGradient id="f" x1="1458.19" y1="830.25" x2="1458.19" y2="834.337" xlink:href="#Bm"><stop stop-color="#59fdfd"/><stop offset="1" stop-color="#eb0aef"/></linearGradient><linearGradient id="g" x1="1458.19" y1="712.161" x2="1458.19" y2="716.248" xlink:href="#Bm"><stop stop-color="#59fdfd"/><stop offset="1" stop-color="#eb0aef"/></linearGradient><linearGradient id="h" x1="1458.19" y1="594.071" x2="1458.19" y2="598.158" xlink:href="#Bm"><stop stop-color="#59fdfd"/><stop offset="1" stop-color="#eb0aef"/></linearGradient><linearGradient id="i" x1="1458.19" y1="475.967" x2="1458.19" y2="480.055" xlink:href="#Bm"><stop stop-color="#59fdfd"/><stop offset="1" stop-color="#eb0aef"/></linearGradient><linearGradient id="j" x1="1458.19" y1="357.878" x2="1458.19" y2="361.965" xlink:href="#Bm"><stop stop-color="#59fdfd"/><stop offset="1" stop-color="#eb0aef"/></linearGradient><linearGradient id="k" x1="1457.91" y1="830.25" x2="1457.91" y2="834.337" xlink:href="#Bm"><stop stop-color="#59fdfd"/><stop offset="1" stop-color="#eb0aef"/></linearGradient><linearGradient id="l" x1="1458.19" y1="840.864" x2="1458.19" y2="844.952" xlink:href="#Bm"><stop stop-color="#59fdfd"/><stop offset="1" stop-color="#eb0aef"/></linearGradient><linearGradient id="m" x1="1458.19" y1="852.475" x2="1458.19" y2="856.562" xlink:href="#Bm"><stop stop-color="#59fdfd"/><stop offset="1" stop-color="#eb0aef"/></linearGradient><linearGradient id="n" x1="1458.19" y1="865.239" x2="1458.19" y2="869.327" xlink:href="#Bm"><stop stop-color="#59fdfd"/><stop offset="1" stop-color="#eb0aef"/></linearGradient><linearGradient id="o" x1="1458.19" y1="879.31" x2="1458.19" y2="883.397" xlink:href="#Bm"><stop stop-color="#59fdfd"/><stop offset="1" stop-color="#eb0aef"/></linearGradient><linearGradient id="p" x1="1458.19" y1="912.352" x2="1458.19" y2="916.44" xlink:href="#Bm"><stop stop-color="#59fdfd"/><stop offset="1" stop-color="#eb0aef"/></linearGradient><linearGradient id="q" x1="1458.19" y1="931.929" x2="1458.19" y2="936.016" xlink:href="#Bm"><stop stop-color="#59fdfd"/><stop offset="1" stop-color="#eb0aef"/></linearGradient><linearGradient id="r" x1="1458.19" y1="954.956" x2="1458.19" y2="959.044" xlink:href="#Bm"><stop stop-color="#59fdfd"/><stop offset="1" stop-color="#eb0aef"/></linearGradient><linearGradient id="s" x1="1458.19" y1="979.271" x2="1458.19" y2="983.358" xlink:href="#Bm"><stop stop-color="#59fdfd"/><stop offset="1" stop-color="#eb0aef"/></linearGradient><linearGradient id="t" x1="1458.19" y1="1008.29" x2="1458.19" y2="1012.38" xlink:href="#Bm"><stop stop-color="#59fdfd"/><stop offset="1" stop-color="#eb0aef"/></linearGradient><linearGradient id="u" x1="1458.19" y1="1042.05" x2="1458.19" y2="1046.14" xlink:href="#Bm"><stop stop-color="#59fdfd"/><stop offset="1" stop-color="#eb0aef"/></linearGradient><linearGradient id="v" x1="1458.19" y1="1081.78" x2="1458.19" y2="1085.87" xlink:href="#Bm"><stop stop-color="#59fdfd"/><stop offset="1" stop-color="#eb0aef"/></linearGradient><linearGradient id="w" x1="1458.19" y1="1129.24" x2="1458.19" y2="1133.33" xlink:href="#Bm"><stop stop-color="#59fdfd"/><stop offset="1" stop-color="#eb0aef"/></linearGradient><linearGradient id="x" x1="1458.19" y1="1378" x2="1458.19" y2="1382.09" xlink:href="#Bm"><stop stop-color="#59fdfd"/><stop offset="1" stop-color="#eb0aef"/></linearGradient><linearGradient id="y" x1="3239.83" y1="1640.01" x2="517.831" y2="1640.01" xlink:href="#Bm"><stop stop-color="#59fdfd"/><stop offset="1" stop-color="#eb0aef"/></linearGradient><linearGradient id="z" x1="1458.33" y1="1889.19" x2="1458.33" y2="1894.19" xlink:href="#Bm"><stop stop-color="#59fdfd"/><stop offset="1" stop-color="#eb0aef"/></linearGradient><linearGradient id="AA" x1="1458.33" y1="2143.19" x2="1458.33" y2="2147.19" xlink:href="#Bm"><stop stop-color="#59fdfd"/><stop offset="1" stop-color="#eb0aef"/></linearGradient><linearGradient id="AB" x1="1458.33" y1="2396.19" x2="1458.33" y2="2400.19" xlink:href="#Bm"><stop stop-color="#59fdfd"/><stop offset="1" stop-color="#eb0aef"/></linearGradient><linearGradient id="AC" x1="1576.97" y1="574.348" x2="1576.97" y2="830.218" xlink:href="#Bm"><stop stop-color="#5974ff" stop-opacity=".32"/><stop offset="1" stop-color="#216cff" stop-opacity=".87"/></linearGradient><linearGradient id="AD" x1="1576.97" y1="574.348" x2="1576.97" y2="830.218" xlink:href="#Bm"><stop stop-color="#469afd" stop-opacity="0"/><stop offset=".465" stop-color="#42bdfe" stop-opacity=".49"/><stop offset="1" stop-color="#3ddcff" stop-opacity=".67"/></linearGradient><linearGradient id="AE" x1="5720910" y1="574.098" x2="5720910" y2="829.968" xlink:href="#Bm"><stop stop-color="#27f1fe" stop-opacity="0"/><stop offset="1" stop-color="#4ae9ff"/></linearGradient><linearGradient id="AF" x1="1753.38" y1="1189.23" x2="1576.38" y2="832.226" xlink:href="#Bm"><stop stop-color="#c521ff"/><stop offset="1" stop-color="#59d7ff"/></linearGradient><linearGradient id="AG" x1="1726.83" y1="1442" x2="1576.38" y2="832.219" xlink:href="#Bm"><stop stop-color="#469afd" stop-opacity="0"/><stop offset=".19" stop-color="#42bdfe" stop-opacity=".54"/><stop offset="1" stop-color="#3ddcff" stop-opacity=".7"/></linearGradient><linearGradient id="AH" x1="1726.83" y1="1426" x2="1565.83" y2="831.998" xlink:href="#Bm"><stop stop-color="#5cf4fe" stop-opacity="0"/><stop offset=".16" stop-color="#5cf4fe"/></linearGradient><linearGradient id="AI" x1="1104.33" y1="444.218" x2="1104.33" y2="830.218" xlink:href="#Bm"><stop stop-color="#ee52fc" stop-opacity="0"/><stop offset=".475" stop-color="#ad27ff" stop-opacity=".68"/><stop offset="1" stop-color="#a129ff"/></linearGradient><linearGradient id="AJ" x1="1104.33" y1="444.218" x2="1104.33" y2="830.218" xlink:href="#Bm"><stop stop-color="#46dcfd" stop-opacity="0"/><stop offset="1" stop-color="#933dff"/></linearGradient><linearGradient id="AK" x1="5720440" y1="443.968" x2="5720440" y2="829.968" xlink:href="#Bm"><stop stop-color="#d49dfe" stop-opacity="0"/><stop offset="1" stop-color="#a770ff"/></linearGradient><linearGradient id="AL" x1="529.552" y1="1214.58" x2="1103.19" y2="831.584" xlink:href="#Bm"><stop stop-color="#ee52fc" stop-opacity="0"/><stop offset=".475" stop-color="#ad27ff" stop-opacity=".68"/><stop offset="1" stop-color="#a129ff"/></linearGradient><linearGradient id="AM" x1="667.83" y1="1800" x2="1121.83" y2="819.999" xlink:href="#Bm"><stop stop-color="#933dff" stop-opacity="0"/><stop offset=".132" stop-color="#933dff"/></linearGradient><linearGradient id="AN" x1="1931.16" y1="503.955" x2="1931.16" y2="830.218" xlink:href="#Bm"><stop stop-color="#58ccfe" stop-opacity="0"/><stop offset="1" stop-color="#58ccfe"/></linearGradient><linearGradient id="AO" x1="1931.16" y1="503.955" x2="1931.16" y2="830.218" xlink:href="#Bm"><stop stop-color="#b61bff" stop-opacity="0"/><stop offset=".571" stop-color="#b61bff"/></linearGradient><linearGradient id="AP" x1="5721260" y1="503.65" x2="5721260" y2="829.913" xlink:href="#Bm"><stop stop-color="#d5bbff" stop-opacity="0"/><stop offset=".444" stop-color="#e0cdff"/></linearGradient><linearGradient id="AQ" x1="2521.33" y1="360" x2="2521.33" y2="765" xlink:href="#Bm"><stop stop-color="#58ccfe" stop-opacity="0"/><stop offset=".28" stop-color="#58ccfe"/><stop offset=".686" stop-color="#58ccfe"/><stop offset="1" stop-color="#58ccfe" stop-opacity="0"/></linearGradient><linearGradient id="AR" x1="2521.33" y1="369" x2="2521.33" y2="765" xlink:href="#Bm"><stop stop-color="#1badff" stop-opacity="0"/><stop offset=".431" stop-color="#b234ff"/><stop offset=".811" stop-color="#b234ff"/><stop offset="1" stop-color="#b234ff" stop-opacity="0"/></linearGradient><linearGradient id="AS" x1="5721850" y1="332.695" x2="5721850" y2="761.069" xlink:href="#Bm"><stop stop-color="#d5bbff" stop-opacity="0"/><stop offset=".264" stop-color="#e0cdff"/><stop offset=".749" stop-color="#e0cdff"/><stop offset="1" stop-color="#d5bbff" stop-opacity="0"/></linearGradient><linearGradient id="AT" x1="2407.83" y1="1070" x2="1930.61" y2="832.447" xlink:href="#Bm"><stop stop-color="#58ccfe" stop-opacity="0"/><stop offset="1" stop-color="#58ccfe"/></linearGradient><linearGradient id="AU" x1="2429.61" y1="1082.45" x2="1930.61" y2="832.447" xlink:href="#Bm"><stop stop-color="#b61bff" stop-opacity="0"/><stop offset=".191" stop-color="#b61bff" stop-opacity=".69"/><stop offset=".571" stop-color="#b61bff"/></linearGradient><linearGradient id="AV" x1="2429.61" y1="1082.45" x2="1930.61" y2="832.447" xlink:href="#Bm"><stop stop-color="#dcc8fe" stop-opacity="0"/><stop offset="1" stop-color="#dcc8fe"/></linearGradient><linearGradient id="AW" x1="2167.33" y1="368.758" x2="2167.33" y2="830.219" xlink:href="#Bm"><stop stop-color="#16a6f7" stop-opacity="0"/><stop offset=".517" stop-color="#5b4ef1" stop-opacity=".82"/><stop offset="1" stop-color="#ff42bf"/></linearGradient><linearGradient id="AX" x1="2167.33" y1="368.758" x2="2167.33" y2="830.219" xlink:href="#Bm"><stop stop-color="#b61bff" stop-opacity="0"/><stop offset=".522" stop-color="#b516ff" stop-opacity=".9"/><stop offset="1" stop-color="#b312ff"/></linearGradient><linearGradient id="AY" x1="5721500" y1="368.508" x2="5721500" y2="829.969" xlink:href="#Bm"><stop stop-color="#d5bbff" stop-opacity="0"/><stop offset="1" stop-color="#e0cdff"/></linearGradient><linearGradient id="AZ" x1="2596.67" y1="975.475" x2="2166.67" y2="832.475" xlink:href="#Bm"><stop stop-color="#16a6f7" stop-opacity="0"/><stop offset=".473" stop-color="#44cdf9"/><stop offset="1" stop-color="#ff42bf"/></linearGradient><linearGradient id="Aa" x1="2596.67" y1="975.475" x2="2166.67" y2="832.475" xlink:href="#Bm"><stop stop-color="#b61bff" stop-opacity="0"/><stop offset=".218" stop-color="#b61bff"/></linearGradient><linearGradient id="Ab" x1="2596.67" y1="975.475" x2="2166.67" y2="832.475" xlink:href="#Bm"><stop stop-color="#d5bbff" stop-opacity="0"/><stop offset="1" stop-color="#e0cdff"/></linearGradient><linearGradient id="Ac" x1="868.33" y1="637.218" x2="868.33" y2="830.218" xlink:href="#Bm"><stop stop-color="#58ccfe" stop-opacity="0"/><stop offset="1" stop-color="#58ccfe"/></linearGradient><linearGradient id="Ad" x1="868.33" y1="637.218" x2="868.33" y2="830.218" xlink:href="#Bm"><stop stop-color="#b61bff" stop-opacity="0"/><stop offset=".571" stop-color="#b61bff"/></linearGradient><linearGradient id="Ae" x1="5720200" y1="636.968" x2="5720200" y2="829.968" xlink:href="#Bm"><stop stop-color="#d5bbff" stop-opacity="0"/><stop offset=".444" stop-color="#e0cdff"/></linearGradient><linearGradient id="Af" x1="499.286" y1="979.577" x2="867.644" y2="831.536" xlink:href="#Bm"><stop offset=".023" stop-color="#cd64ff" stop-opacity=".38"/><stop offset=".244" stop-color="#ca5aff"/><stop offset="1" stop-color="#b61bff"/></linearGradient><linearGradient id="Ag" x1="499.286" y1="979.576" x2="867.644" y2="831.536" xlink:href="#Bm"><stop stop-color="#eaddff" stop-opacity="0"/><stop offset=".232" stop-color="#ebdeff"/><stop offset="1" stop-color="#ece1fe"/></linearGradient><linearGradient id="Ah" x1="750.33" y1="835" x2="750.33" y2="362.575" xlink:href="#Bm"><stop stop-color="#58ccfe" stop-opacity="0"/><stop offset="1" stop-color="#58ccfe"/></linearGradient><linearGradient id="Ai" x1="750.33" y1="835" x2="750.33" y2="362.575" xlink:href="#Bm"><stop stop-color="#1b5bff" stop-opacity="0"/><stop offset=".571" stop-color="#801bff"/></linearGradient><linearGradient id="Aj" x1="5720080" y1="835.28" x2="5720080" y2="362.855" xlink:href="#Bm"><stop stop-color="#82a4fc" stop-opacity="0"/><stop offset=".444" stop-color="#6de8f9"/></linearGradient><linearGradient id="Ak" x1="248.671" y1="193.474" x2="749.671" y2="361.474" xlink:href="#Bm"><stop stop-color="#58ccfe" stop-opacity="0"/><stop offset="1" stop-color="#58ccfe"/></linearGradient><linearGradient id="Al" x1="248.671" y1="193.474" x2="749.671" y2="361.474" xlink:href="#Bm"><stop stop-color="#1b5bff" stop-opacity="0"/><stop offset=".571" stop-color="#801bff"/></linearGradient><linearGradient id="Am" x1="248.67" y1="193.474" x2="749.67" y2="361.474" xlink:href="#Bm"><stop stop-color="#82a4fc" stop-opacity="0"/><stop offset=".444" stop-color="#6de8f9"/></linearGradient><linearGradient id="An" x1="399.83" y1="360" x2="246.83" y2="323" xlink:href="#Bm"><stop stop-color="#9bedff"/><stop offset=".79" stop-color="#97f2ff"/><stop offset="1" stop-color="#21e3fd" stop-opacity="0"/></linearGradient><linearGradient id="Ao" x1="393.751" y1="353.717" x2="395.896" y2="555.806" xlink:href="#Bm"><stop stop-color="#9bedff"/><stop offset=".764" stop-color="#938afe"/><stop offset="1" stop-color="#8986ff" stop-opacity="0"/></linearGradient><linearGradient id="Ap" x1="393.751" y1="353.717" x2="391.775" y2="555.139" xlink:href="#Bm"><stop stop-color="#9bedff"/><stop offset=".79" stop-color="#97baff"/><stop offset="1" stop-color="#21e3fd" stop-opacity="0"/></linearGradient><linearGradient id="Aq" x1="1862.23" y1="90.209" x2="1893.43" y2="263.791" xlink:href="#Bm"><stop stop-color="#55ccf2"/><stop offset=".651" stop-color="#55baf2"/><stop offset="1" stop-color="#55c3f2" stop-opacity="0"/></linearGradient><linearGradient id="Ar" x1="2201.83" y1="1568.11" x2="1829.73" y2="2382.09" xlink:href="#Bm"><stop stop-color="#646bff"/><stop offset=".692" stop-color="#b449f6"/><stop offset="1" stop-color="#a526f3" stop-opacity="0"/></linearGradient><linearGradient id="As" x1="581.137" y1="2578.02" x2="1064.33" y2="2917.21" xlink:href="#Bm"><stop stop-color="#646bff"/><stop offset=".692" stop-color="#4998f6"/><stop offset="1" stop-color="#a526f3" stop-opacity="0"/></linearGradient><linearGradient id="At" x1="581.137" y1="2578.02" x2="1064.33" y2="2917.21" xlink:href="#Bm"><stop stop-color="#4cffea"/><stop offset=".692" stop-color="#49adf6"/><stop offset="1" stop-color="#2678f3" stop-opacity="0"/></linearGradient><linearGradient id="Au" x1="924" y1="1892" x2="924" y2="1602" xlink:href="#Bm"><stop offset=".462" stop-color="#59e0fd"/><stop offset=".772" stop-color="#974bfd" stop-opacity=".63"/><stop offset="1" stop-color="#59fdfd" stop-opacity="0"/></linearGradient><linearGradient id="Av" x1="924" y1="1892" x2="924" y2="1602" xlink:href="#Bm"><stop offset=".359" stop-color="#59e0fd"/><stop offset=".759" stop-color="#974bfd" stop-opacity=".63"/><stop offset="1" stop-color="#59fdfd" stop-opacity="0"/></linearGradient><linearGradient id="Aw" x1="1938" y1="2474" x2="1938" y2="3157" xlink:href="#Bm"><stop stop-color="#f84afc" stop-opacity="0"/><stop offset=".256" stop-color="#8b44ff"/><stop offset=".646" stop-color="#bc3cff"/><stop offset="1" stop-color="#f84afc"/></linearGradient><linearGradient id="Ax" x1="1938" y1="2494" x2="1938" y2="3157" xlink:href="#Bm"><stop stop-color="#bc9dff" stop-opacity="0"/><stop offset=".278" stop-color="#bc9dff"/><stop offset=".573" stop-color="#bc9dff"/><stop offset="1" stop-color="#fd94ff"/></linearGradient><linearGradient id="Ay" x1="930" y1="2905" x2="1051.74" y2="3284.28" xlink:href="#Bm"><stop stop-color="#1a94c8" stop-opacity="0"/><stop offset=".214" stop-color="#1a94c8"/><stop offset=".776" stop-color="#1a94c8"/><stop offset="1" stop-color="#1a94c8" stop-opacity="0"/></linearGradient><linearGradient id="Az" x1="1021" y1="2905" x2="1104.01" y2="3278.79" xlink:href="#Bm"><stop stop-color="#5dcfff" stop-opacity="0"/><stop offset=".169" stop-color="#5dcfff"/><stop offset=".737" stop-color="#5dcfff"/><stop offset=".939" stop-color="#5dcfff" stop-opacity="0"/></linearGradient><linearGradient id="BA" x1="930" y1="2905" x2="1070.23" y2="3251.01" xlink:href="#Bm"><stop stop-color="#1a94c8" stop-opacity="0"/><stop offset=".193" stop-color="#1a94c8"/><stop offset=".651" stop-color="#1a94c8"/><stop offset=".86" stop-color="#1a94c8" stop-opacity="0"/></linearGradient><linearGradient id="BB" x1="1021" y1="2905" x2="1104.01" y2="3278.79" xlink:href="#Bm"><stop stop-color="#5dcfff" stop-opacity="0"/><stop offset=".169" stop-color="#5dcfff"/><stop offset=".641" stop-color="#5dcfff"/><stop offset="1" stop-color="#5dcfff" stop-opacity="0"/></linearGradient><filter id="BC" x="-71.014" y="867.603" width="414.688" height="116.794" filterUnits="userSpaceOnUse" class="B"><feFlood class="C"/><feBlend in="SourceGraphic"/><feGaussianBlur stdDeviation="2.5"/></filter><filter id="BD" x="2477.28" y="125.078" width="602.109" height="185.843" filterUnits="userSpaceOnUse" class="B"><feFlood class="C"/><feBlend in="SourceGraphic"/><feGaussianBlur stdDeviation="3"/></filter><filter id="BE" x="2205.5" y="58.767" width="582.4" height="244.104" filterUnits="userSpaceOnUse" class="B"><feFlood class="C"/><feBlend in="SourceGraphic"/><feGaussianBlur stdDeviation="3"/></filter><filter id="BF" x="1553.97" y="563.348" width="45" height="277.871" filterUnits="userSpaceOnUse" class="B"><feFlood class="C"/><feBlend in="SourceGraphic"/><feGaussianBlur stdDeviation="5.5"/></filter><filter id="BG" x="1562.47" y="563.348" width="28" height="277.871" filterUnits="userSpaceOnUse" class="B"><feFlood class="C"/><feBlend in="SourceGraphic"/><feGaussianBlur stdDeviation="5.5"/></filter><filter id="BH" x="1565.25" y="822.212" width="172.58" height="639.785" filterUnits="userSpaceOnUse" class="B"><feFlood class="C"/><feBlend in="SourceGraphic"/><feGaussianBlur stdDeviation="4"/></filter><filter id="BI" x="1084.83" y="433.218" width="38" height="408" filterUnits="userSpaceOnUse" class="B"><feFlood class="C"/><feBlend in="SourceGraphic"/><feGaussianBlur stdDeviation="5.5"/></filter><filter id="BJ" x="1092.33" y="436.218" width="23" height="402" filterUnits="userSpaceOnUse" class="B"><feFlood class="C"/><feBlend in="SourceGraphic"/><feGaussianBlur stdDeviation="4"/></filter><filter id="BK" x="554.332" y="817.262" width="562.641" height="3487.86" filterUnits="userSpaceOnUse" class="B"><feFlood class="C"/><feBlend in="SourceGraphic"/><feGaussianBlur stdDeviation="5.5"/></filter><filter id="BL" x="643.33" y="822.087" width="469.082" height="960.912" filterUnits="userSpaceOnUse" class="B"><feFlood class="C"/><feBlend in="SourceGraphic"/><feGaussianBlur stdDeviation="3.5"/></filter><filter id="BM" x="1917.16" y="495.955" width="27" height="342.263" filterUnits="userSpaceOnUse" class="B"><feFlood class="C"/><feBlend in="SourceGraphic"/><feGaussianBlur stdDeviation="4"/></filter><filter id="BN" x="1919.16" y="495.955" width="23" height="342.263" filterUnits="userSpaceOnUse" class="B"><feFlood class="C"/><feBlend in="SourceGraphic"/><feGaussianBlur stdDeviation="4"/></filter><filter id="BO" x="2507.33" y="352" width="27" height="421" filterUnits="userSpaceOnUse" class="B"><feFlood class="C"/><feBlend in="SourceGraphic"/><feGaussianBlur stdDeviation="4"/></filter><filter id="BP" x="2509.33" y="361" width="23" height="412" filterUnits="userSpaceOnUse" class="B"><feFlood class="C"/><feBlend in="SourceGraphic"/><feGaussianBlur stdDeviation="4"/></filter><filter id="BQ" x="1919.37" y="818.083" width="521.926" height="277.835" filterUnits="userSpaceOnUse" class="B"><feFlood class="C"/><feBlend in="SourceGraphic"/><feGaussianBlur stdDeviation="4.5"/></filter><filter id="BR" x="1920.81" y="819.977" width="519.031" height="274.047" filterUnits="userSpaceOnUse" class="B"><feFlood class="C"/><feBlend in="SourceGraphic"/><feGaussianBlur stdDeviation="4"/></filter><filter id="BS" x="2153.33" y="360.758" width="27" height="477.461" filterUnits="userSpaceOnUse" class="B"><feFlood class="C"/><feBlend in="SourceGraphic"/><feGaussianBlur stdDeviation="4"/></filter><filter id="BT" x="2155.33" y="360.758" width="23" height="477.461" filterUnits="userSpaceOnUse" class="B"><feFlood class="C"/><feBlend in="SourceGraphic"/><feGaussianBlur stdDeviation="4"/></filter><filter id="BU" x="2157.88" y="821.153" width="447.895" height="164.693" filterUnits="userSpaceOnUse" class="B"><feFlood class="C"/><feBlend in="SourceGraphic"/><feGaussianBlur stdDeviation="4"/></filter><filter id="BV" x="2158.04" y="821.628" width="447.578" height="163.745" filterUnits="userSpaceOnUse" class="B"><feFlood class="C"/><feBlend in="SourceGraphic"/><feGaussianBlur stdDeviation="4"/></filter><filter id="BW" x="854.33" y="629.218" width="27" height="209" filterUnits="userSpaceOnUse" class="B"><feFlood class="C"/><feBlend in="SourceGraphic"/><feGaussianBlur stdDeviation="4"/></filter><filter id="BX" x="856.33" y="629.218" width="23" height="209" filterUnits="userSpaceOnUse" class="B"><feFlood class="C"/><feBlend in="SourceGraphic"/><feGaussianBlur stdDeviation="4"/></filter><filter id="BY" x="490.98" y="821.289" width="385.342" height="169.464" filterUnits="userSpaceOnUse" class="B"><feFlood class="C"/><feBlend in="SourceGraphic"/><feGaussianBlur stdDeviation="3.5"/></filter><filter id="BZ" x="736.33" y="354.575" width="27" height="488.425" filterUnits="userSpaceOnUse" class="B"><feFlood class="C"/><feBlend in="SourceGraphic"/><feGaussianBlur stdDeviation="4"/></filter><filter id="Ba" x="738.33" y="354.575" width="23" height="488.425" filterUnits="userSpaceOnUse" class="B"><feFlood class="C"/><feBlend in="SourceGraphic"/><feGaussianBlur stdDeviation="4"/></filter><filter id="Bb" x="239.082" y="179.785" width="520.496" height="194.429" filterUnits="userSpaceOnUse" class="B"><feFlood class="C"/><feBlend in="SourceGraphic"/><feGaussianBlur stdDeviation="4"/></filter><filter id="Bc" x="239.717" y="181.682" width="519.227" height="190.637" filterUnits="userSpaceOnUse" class="B"><feFlood class="C"/><feBlend in="SourceGraphic"/><feGaussianBlur stdDeviation="4"/></filter><filter id="Bd" x="245.383" y="320.051" width="154.895" height="46.899" filterUnits="userSpaceOnUse" class="B"><feFlood class="C"/><feBlend in="SourceGraphic"/><feGaussianBlur stdDeviation="2.5"/></filter><filter id="Be" x="388.197" y="354.944" width="14.633" height="199.062" filterUnits="userSpaceOnUse" class="B"><feFlood class="C"/><feBlend in="SourceGraphic"/><feGaussianBlur stdDeviation="2.5"/></filter><filter id="Bf" x="1755.7" y="53.888" width="244.262" height="246.223" filterUnits="userSpaceOnUse" class="B"><feFlood class="C"/><feBlend in="SourceGraphic"/><feGaussianBlur stdDeviation="6"/></filter><filter id="Bg" x="1979.33" y="1623.5" width="1156.5" height="914.5" filterUnits="userSpaceOnUse" class="B"><feFlood class="C"/><feBlend in="SourceGraphic"/><feGaussianBlur stdDeviation="5.5"/></filter><filter id="Bh" x="-88.17" y="2638" width="752" height="950.255" filterUnits="userSpaceOnUse" class="B"><feFlood class="C"/><feBlend in="SourceGraphic"/><feGaussianBlur stdDeviation="4.5"/></filter><filter id="Bi" x="-57" y="1624" width="997.5" height="538.5" filterUnits="userSpaceOnUse" class="B"><feFlood class="C"/><feBlend in="SourceGraphic"/><feGaussianBlur stdDeviation="7"/></filter><filter id="Bj" x="1443.5" y="2500" width="1606.5" height="671.5" filterUnits="userSpaceOnUse" class="B"><feFlood class="C"/><feBlend in="SourceGraphic"/><feGaussianBlur stdDeviation="5"/></filter><filter id="Bk" x="922" y="2893.5" width="283.5" height="360.5" filterUnits="userSpaceOnUse" class="B"><feFlood class="C"/><feBlend in="SourceGraphic"/><feGaussianBlur stdDeviation="4"/></filter><filter id="Bl" x="918" y="2892" width="289" height="366" filterUnits="userSpaceOnUse" class="B"><feFlood class="C"/><feBlend in="SourceGraphic"/><feGaussianBlur stdDeviation="6"/></filter><linearGradient id="Bm" gradientUnits="userSpaceOnUse"/></defs></svg>